<svg width="272" height="83" viewBox="0 0 272 83" fill="none" xmlns="http://www.w3.org/2000/svg">
<g id="Group 1" filter="url(#filter0_d)">
<g id="d71fc344c04383686c085d39655434458e30389c-263x74 1" clip-path="url(#clip0)">
<g id="Group">
<g id="Group_2">
<g id="Group_3">
<path id="Vector" d="M38.07 17.78C38.84 17.57 39.69 17.6 40.41 17.94C40.74 18.1 41.06 18.3 41.44 18.28C41.98 18.24 42.43 17.78 42.44 17.23C42.45 16.23 41.12 15.86 40.35 15.68C39.36 15.45 38.31 15.46 37.34 15.75C36.94 15.87 36.55 16.04 36.19 16.25C34.65 17.14 33.84 18.82 34.08 20.58C34.09 20.68 34.11 20.79 34.17 20.88C34.29 21.05 34.43 21 34.56 20.87C34.75 20.67 34.93 20.3 35.01 20.18C35.31 19.74 35.65 19.33 36.04 18.97C36.61 18.43 37.3 17.99 38.07 17.78Z" fill="#457AF5"/>
<path id="Vector_2" d="M70.48 36.25C70.02 35.66 69.49 35.18 68.91 34.72C68.04 34.03 67.01 33.48 65.97 33.09C66.01 32.16 66 31.22 65.86 30.3C66.08 30.25 66.29 30.2 66.51 30.16C67.02 30.08 67.55 30.13 68.06 30.21C68.54 30.29 69.01 30.39 69.47 30.53C69.92 30.67 70.34 30.91 70.79 31.04C70.94 31.08 71.1 31.11 71.25 31.08C71.43 31.04 71.59 30.9 71.61 30.73C71.62 30.61 71.57 30.49 71.51 30.39C71.26 29.93 70.86 29.58 70.42 29.27C69.89 28.88 69.31 28.58 68.66 28.39C67.59 28.09 66.4 28.15 65.32 28.42C65.29 28.35 65.27 28.28 65.24 28.22C64.49 26.61 63.1 25.78 61.65 24.89C60.99 24.49 60.32 24.05 59.97 23.34C59.53 22.45 59.56 21.38 59.45 20.42C59.05 16.88 57.35 13.54 54.69 11.15C53.16 9.77001 51.44 8.92001 49.56 8.12001C48.07 7.49001 45.04 5.96001 46.11 3.83001C46.49 3.07001 45.86 2.21001 45.02 2.41001C43.81 2.70001 42.65 3.19001 41.6 3.85001C41.56 3.62001 41.53 3.40001 41.54 3.16001C41.56 2.62001 41.72 2.10001 41.98 1.63001C42.43 0.810012 41.69 -0.169988 40.77 0.060012C38.93 0.520012 37.18 1.36001 35.71 2.56001C34.18 0.870012 32.03 -0.089988 29.7 0.040012C29.08 0.070012 28.57 0.640012 28.76 1.28001C29.68 4.52001 23.99 5.29001 22.08 6.19001C19.42 7.44001 17.33 9.63001 15.75 12.07C14.55 12.08 13.36 12.38 12.39 13.06C9.18996 15.33 9.64996 19.83 11.66 22.72C10.78 26.27 9.87996 29.86 8.99996 33.44C8.11996 37 7.05996 40.57 6.74996 44.24C6.68996 44.94 6.67996 45.63 6.69996 46.32C4.26996 47.87 3.73996 51.94 4.09996 54.48C4.64996 58.36 7.27996 61.56 10.24 63.95C16.29 68.83 23.92 71.53 31.48 73.02C35.67 73.84 39.94 74.31 44.21 74.24C44.64 74.23 45.17 73.92 45.24 73.45C45.64 70.9 45.81 68.32 46.15 65.77C46.69 65.62 47.23 65.44 47.75 65.24C48.19 66.61 48.68 67.96 49.15 69.32C49.48 70.27 49.76 71.8 51.03 71.83C52.18 71.85 53.45 70.58 54.2 69.84C55.26 68.81 56.05 67.54 56.64 66.2C58.83 61.18 59.48 55.07 55.41 50.88C55.07 49.24 54.52 47.63 53.82 46.11C54.71 46.01 55.58 45.85 56.45 45.61C59.41 44.8 63.21 42.56 63.84 39.27C63.85 39.2 63.84 39.13 63.84 39.06C63.99 38.96 64.13 38.86 64.27 38.73C65.27 37.8 65.63 36.52 65.8 35.22C66.18 35.41 66.56 35.6 66.93 35.81C68.22 36.55 69.44 37.43 70.56 38.44C70.7 38.57 70.85 38.71 71.03 38.76C71.41 38.88 71.76 38.47 71.56 38.08C71.24 37.44 70.92 36.8 70.48 36.25ZM43.29 72.1C36.53 72.09 29.72 70.85 23.36 68.61C20.11 67.47 16.94 66.02 14.06 64.11C11.12 62.16 8.15996 59.68 6.78996 56.33C6.12996 54.73 5.93996 52.95 6.21996 51.25C6.35996 50.41 6.64996 49.69 7.00996 48.99C7.33996 50.61 7.92996 52.18 8.82996 53.62C10.44 56.21 12.75 58.29 15.25 60C20.71 63.73 27.23 65.92 33.78 66.58C37.1 66.92 40.49 66.85 43.79 66.3C43.85 66.29 43.91 66.28 43.97 66.27C43.74 68.21 43.56 70.16 43.29 72.1ZM55.22 64.04C54.49 66.17 53.34 68.03 51.48 69.34C51.35 68.81 51.04 68.21 50.88 67.75C50.48 66.62 50.1 65.49 49.68 64.37C50.57 63.89 51.41 63.32 52.17 62.64C54.49 60.56 55.54 57.94 55.75 55.18C56.05 55.93 56.25 56.72 56.31 57.56C56.48 59.76 55.93 61.96 55.22 64.04ZM51.44 60.34C47.5 64.68 40.44 64.93 35.01 64.55C32.86 64.4 30.71 64.05 28.61 63.54C28.37 60.61 28.61 57.73 29.77 54.99C30.88 52.38 32.72 50.04 35.09 48.47C40.1 45.13 45.89 46.4 51.52 46.26C53.76 50.57 55.04 56.37 51.44 60.34ZM62.42 37.45C61.56 37.79 60.66 36.99 60.3 36.28C60.06 35.82 59.94 35.31 59.85 34.8C60.08 34.55 60.28 34.26 60.47 33.97C61.12 32.98 61.73 31.95 62.09 30.81C62.12 30.7 62.16 30.6 62.18 30.49C62.25 30.18 62.28 29.87 62.21 29.57C61.97 28.65 60.9 28.3 60.07 28.21C58.92 28.07 57.77 28.33 56.68 28.71C55.56 29.1 54.4 29.68 53.92 30.85C53.41 32.11 54.27 33.22 55.23 33.94C55.76 34.33 56.35 34.85 56.99 35.2C56.95 35.33 56.91 35.47 56.86 35.59C56.56 36.36 56.09 37.08 55.52 37.67C54.19 39.04 52.33 39.64 50.45 39.57C48.57 39.49 46.71 38.71 45.36 37.39C45.18 37.21 45.02 37.02 44.87 36.83C45.36 36.76 45.85 36.7 46.34 36.67C47.47 36.6 48.61 36.81 49.72 36.58C49.96 36.53 50.21 36.46 50.37 36.28C50.55 36.09 50.58 35.82 50.5 35.57C50.47 35.48 50.43 35.4 50.38 35.32C50.18 35.04 49.84 34.86 49.5 34.75C48.53 34.44 47.51 34.58 46.52 34.63C45.72 34.67 44.92 34.75 44.13 34.88C44.09 34 44.52 33.24 44.51 32.37C44.5 31.84 43.97 31.61 43.53 31.81C42.46 32.28 42.21 33.87 42.27 34.91C42.28 35.02 42.3 35.13 42.31 35.24C42.21 35.26 42.11 35.28 42.01 35.31C39.17 36.01 36.27 37.22 34.35 39.41C33.97 39.85 34.44 40.51 35.01 40.22C37.49 38.93 40.12 37.84 42.88 37.2C43.06 37.58 43.26 37.94 43.5 38.28C44.99 40.36 47.49 41.44 49.98 41.68C52.48 41.91 55.06 41.1 56.88 39.34C57.52 38.72 58.05 38 58.46 37.21C58.73 37.77 59.09 38.28 59.56 38.7C60.11 39.18 60.76 39.47 61.42 39.58C60.83 40.52 60.19 41.35 59.2 42.04C57.88 42.95 56.39 43.51 54.83 43.81C50.95 44.57 46.96 43.83 43.05 43.97C39.58 44.09 36.22 44.97 33.4 47.06C31.01 48.83 29.12 51.19 27.93 53.92C26.69 56.74 26.14 59.89 26.47 62.96C23.36 62.01 20.37 60.69 17.6 58.99C15.29 57.57 13.08 55.85 11.43 53.67C9.58996 51.25 8.72996 48.43 8.80996 45.39C8.91996 41.65 10.07 37.97 10.96 34.36C11.76 31.12 12.52 27.87 13.31 24.63C13.61 24.93 13.91 25.22 14.24 25.49C14.64 25.83 16.47 27.23 16.92 26.3C17.34 25.43 16.13 24.39 15.57 23.86C14.78 23.12 14 22.35 13.39 21.45C12.39 19.97 11.86 18.17 12.43 16.42C13.01 14.64 14.84 13.96 16.58 14.21C17.65 14.36 18.65 14.83 19.57 15.39C20.37 15.87 21.67 17.19 22.68 16.79C22.99 16.67 23.16 16.46 23.19 16.12C23.28 15.06 21.78 14.26 21.02 13.78C20.11 13.2 19.12 12.69 18.09 12.37C18.07 12.36 18.04 12.36 18.01 12.35C19.81 9.88001 22.11 8.13001 25.11 7.18001C26.67 6.69001 28.37 6.17001 29.5 4.91001C30.24 4.08001 30.75 3.07001 30.81 2.00001C32.19 2.16001 33.43 2.79001 34.4 3.80001C33.17 5.16001 32.07 6.66001 31.38 8.37001C31.26 8.67001 31.09 9.06001 31.12 9.39001C31.13 9.50001 31.18 9.61001 31.28 9.66001C31.38 9.71001 31.49 9.69001 31.59 9.64001C31.6 9.63001 31.62 9.62001 31.63 9.61001C31.73 9.53001 31.8 9.42001 31.86 9.32001C32.89 7.62001 34.04 6.00001 35.68 4.83001C36.86 3.99001 38.14 3.26001 39.48 2.71001C39.47 2.82001 39.45 2.93001 39.44 3.04001C39.4 3.75001 39.49 4.56001 39.84 5.21001C38.94 6.08001 38.2 7.10001 37.67 8.25001C37.45 8.73001 38.05 9.07001 38.37 8.66001C39.82 6.74001 41.75 5.35001 43.99 4.63001C43.98 5.51001 44.25 6.39001 44.75 7.17001C45.68 8.62001 47.21 9.37001 48.75 10.02C51.24 11.07 53.36 12.47 54.94 14.55C54.73 14.56 54.52 14.58 54.31 14.62C53.39 14.79 52.48 15.36 51.93 16.11C51.68 16.46 51.51 16.89 51.59 17.32C51.63 17.55 51.75 17.78 51.96 17.89C52.11 17.97 52.28 17.97 52.44 17.94C52.5 17.93 52.55 17.91 52.61 17.89C53.21 17.63 53.59 17.04 54.16 16.72C54.54 16.51 54.98 16.4 55.4 16.48C55.74 16.55 56.02 16.65 56.29 16.8C56.64 17.55 56.91 18.34 57.1 19.14C56.96 19.12 56.81 19.1 56.66 19.1C55.23 19.1 54.08 20.18 54.08 21.51C54.08 22.84 55.24 23.92 56.66 23.92C57.1 23.92 57.5 23.81 57.87 23.63C58.08 24.28 58.4 24.89 58.92 25.43C59.96 26.52 61.47 26.97 62.55 28C63.75 29.14 63.9 30.88 63.87 32.44C63.85 33.83 64.04 36.81 62.42 37.45Z" fill="#457AF5"/>
<path id="Vector_3" d="M49.3 30.02C47.21 29.19 44.74 28.98 42.51 29.13C40.14 29.29 37.69 29.91 35.63 31.16C35.19 31.43 35.48 32.12 35.97 32C38.15 31.45 40.36 31.26 42.61 31.24C44.71 31.22 46.75 31.38 48.75 32.04C50.03 32.45 50.5 30.5 49.3 30.02Z" fill="#457AF5"/>
<path id="Vector_4" d="M37.89 24.06C37.89 25.46 39.11 26.6 40.62 26.6C42.13 26.6 43.35 25.46 43.35 24.06C43.35 22.66 42.13 21.52 40.62 21.52C39.11 21.52 37.89 22.65 37.89 24.06Z" fill="#457AF5"/>
<path id="Vector_5" d="M18.5899 39.13C18.4399 39.16 18.3199 39.23 18.2199 39.33C18.0599 39.49 17.9499 39.71 17.8799 39.93C17.5299 40.94 17.2899 41.99 17.1399 43.05C17.0699 43.57 17.0099 44.1 16.9799 44.62C16.9499 45.02 16.8099 45.66 17.0399 46.01C17.1699 46.21 17.4299 46.32 17.6599 46.24C18.0199 46.1 18.1399 45.52 18.2699 45.19C18.4699 44.68 18.6499 44.17 18.8099 43.65C19.1299 42.61 19.3599 41.54 19.4899 40.46C19.5199 40.21 19.5499 39.96 19.4799 39.72C19.3799 39.34 18.9799 39.05 18.5899 39.13Z" fill="#457AF5"/>
<path id="Vector_6" d="M14.1199 41.13C14.2099 40.67 13.9899 40.14 13.4899 40.03C13.0099 39.92 12.5299 40.17 12.3899 40.66C12.1799 41.37 11.9999 42.08 11.8799 42.83C11.7599 43.59 11.6799 44.38 11.6699 45.15C11.6699 45.66 12.4199 45.9 12.6699 45.42C13.0199 44.74 13.3199 44.02 13.5599 43.29C13.7999 42.58 13.9699 41.86 14.1199 41.13Z" fill="#457AF5"/>
<path id="Vector_7" d="M14.7399 47.01C14.4099 46.94 14.0399 47.03 13.8299 47.29C13.7499 47.39 13.6899 47.51 13.6399 47.64C13.6099 47.71 13.5899 47.79 13.5699 47.87C13.1999 49.15 12.9799 50.48 12.9199 51.81C12.9099 52.04 12.9099 52.29 13.0499 52.47C13.2099 52.68 13.5299 52.73 13.7499 52.59C13.8999 52.49 13.9799 52.33 14.0599 52.17C14.6399 50.96 15.0599 49.68 15.3299 48.37C15.4299 47.83 15.3799 47.16 14.7399 47.01Z" fill="#457AF5"/>
<path id="Vector_8" d="M17.9299 16C17.3799 15.82 16.7699 15.68 16.1899 15.74C15.5899 15.8 15.0399 15.92 14.4799 16.14C14.1799 16.25 14.2399 16.65 14.5499 16.69C14.9799 16.74 15.4499 16.87 15.8299 17.06C16.2699 17.28 16.7299 17.47 17.1499 17.74C17.3499 17.87 17.5399 18.02 17.7399 18.16C17.7799 18.19 17.8099 18.21 17.8199 18.21C17.8399 18.23 17.8599 18.24 17.8799 18.26C17.9799 18.34 18.0899 18.43 18.1899 18.51C18.3699 18.67 18.5399 18.84 18.6999 19.02C18.7399 19.07 18.7799 19.11 18.8199 19.16C18.8299 19.17 18.8299 19.17 18.8299 19.18C18.9099 19.29 18.9799 19.4 19.0499 19.51C19.3399 19.99 20.0199 20.21 20.5099 19.89C20.9799 19.58 21.2099 18.93 20.8899 18.43C20.1899 17.34 19.1799 16.41 17.9299 16Z" fill="#457AF5"/>
</g>
</g>
</g>
<path id="Coders" d="M107.176 63.48C98.44 63.48 94.072 60.664 94.072 55.032V40.248C94.072 34.296 98.44 31.32 107.176 31.32C110.152 31.32 113 31.624 115.72 32.232V35.688C112.648 34.92 109.832 34.536 107.272 34.536C106.024 34.536 104.936 34.616 104.008 34.776C103.08 34.904 102.184 35.144 101.32 35.496C99.464 36.296 98.536 37.864 98.536 40.2V54.792C98.536 58.376 101.512 60.168 107.464 60.168C110.024 60.168 112.84 59.784 115.912 59.016V62.568C113.192 63.176 110.28 63.48 107.176 63.48ZM131.678 63.48C129.63 63.48 128.094 63.4 127.07 63.24C126.046 63.112 125.022 62.808 123.998 62.328C122.942 61.848 122.174 61.08 121.694 60.024C121.214 58.936 120.974 57.48 120.974 55.656V47.592C120.974 46.152 121.15 44.888 121.502 43.8C121.854 42.712 122.318 41.864 122.894 41.256C123.374 40.712 124.094 40.296 125.054 40.008C126.046 39.688 127.054 39.48 128.078 39.384C129.23 39.32 130.43 39.288 131.678 39.288C133.342 39.288 134.59 39.336 135.422 39.432C136.286 39.496 137.198 39.656 138.158 39.912C139.15 40.2 139.918 40.632 140.462 41.208C141.006 41.784 141.47 42.616 141.854 43.704C142.206 44.824 142.382 46.12 142.382 47.592V55.656C142.382 58.376 141.758 60.36 140.51 61.608C139.998 62.12 139.262 62.52 138.302 62.808C137.342 63.096 136.35 63.288 135.326 63.384C134.11 63.448 132.894 63.48 131.678 63.48ZM131.678 60.648C133.022 60.648 133.998 60.616 134.606 60.552C135.214 60.488 135.806 60.312 136.382 60.024C136.958 59.768 137.358 59.352 137.582 58.776C137.838 58.168 137.966 57.336 137.966 56.28V46.872C137.966 45.432 137.79 44.392 137.438 43.752C137.086 43.08 136.478 42.648 135.614 42.456C134.782 42.232 133.47 42.12 131.678 42.12C129.886 42.12 128.558 42.232 127.694 42.456C126.862 42.648 126.27 43.08 125.918 43.752C125.566 44.392 125.39 45.432 125.39 46.872V56.28C125.39 57.336 125.502 58.168 125.726 58.776C125.982 59.352 126.398 59.768 126.974 60.024C127.55 60.312 128.142 60.488 128.75 60.552C129.358 60.616 130.334 60.648 131.678 60.648ZM157.423 63.48C155.119 63.48 153.311 63.256 151.999 62.808C150.687 62.328 149.727 61.56 149.119 60.504C148.543 59.448 148.255 57.976 148.255 56.088V45.864C148.255 43.528 148.975 41.848 150.415 40.824C151.887 39.8 154.303 39.288 157.663 39.288C159.679 39.288 161.407 39.544 162.847 40.056C164.319 40.568 165.071 41.304 165.103 42.264H165.199L165.103 36.36V29.4H169.423V63H165.199V60.264C165.199 61.128 164.511 61.864 163.135 62.472C161.759 63.144 159.855 63.48 157.423 63.48ZM158.335 60.504C160.735 60.504 162.463 60.232 163.519 59.688C164.575 59.144 165.103 58.216 165.103 56.904V45.432C165.103 43.352 162.975 42.312 158.719 42.312C156.159 42.312 154.495 42.504 153.727 42.888C152.927 43.272 152.527 44.12 152.527 45.432V56.904C152.527 58.216 152.959 59.144 153.823 59.688C154.719 60.232 156.223 60.504 158.335 60.504ZM186.333 63.48C179.229 63.48 175.677 61.112 175.677 56.376V47.208C175.677 44.392 176.477 42.376 178.077 41.16C179.709 39.912 182.333 39.288 185.949 39.288C189.373 39.288 191.837 39.88 193.341 41.064C194.877 42.248 195.645 44.296 195.645 47.208V52.344H180.045V55.848C180.045 57.448 180.605 58.6 181.725 59.304C182.845 60.008 184.573 60.36 186.909 60.36C189.117 60.36 191.725 59.976 194.733 59.208V62.52C191.789 63.16 188.989 63.48 186.333 63.48ZM191.325 49.512V45.864C191.325 44.456 190.893 43.496 190.029 42.984C189.197 42.44 187.757 42.168 185.709 42.168C183.725 42.168 182.285 42.44 181.389 42.984C180.493 43.496 180.045 44.456 180.045 45.864V49.512H191.325ZM202.228 39.768H206.308V43.56C206.308 42.824 206.628 42.136 207.268 41.496C207.908 40.824 208.724 40.296 209.716 39.912C210.708 39.496 211.684 39.288 212.644 39.288H214.756V42.984H212.356C210.308 42.984 208.82 43.256 207.892 43.8C206.996 44.312 206.548 45.256 206.548 46.632V63H202.228V39.768ZM226.161 63.48C223.697 63.48 221.041 63.288 218.193 62.904V59.592C221.937 60.2 224.625 60.504 226.257 60.504C228.305 60.504 229.777 60.312 230.673 59.928C231.569 59.512 232.017 58.76 232.017 57.672V55.32C232.017 54.328 231.681 53.624 231.009 53.208C230.337 52.792 229.249 52.584 227.745 52.584H225.105C222.705 52.584 220.865 52.088 219.585 51.096C218.337 50.104 217.713 48.712 217.713 46.92V44.76C217.713 41.112 221.169 39.288 228.081 39.288C228.593 39.288 230.945 39.416 235.137 39.672V42.792C232.289 42.344 229.873 42.12 227.889 42.12C225.617 42.12 224.065 42.344 223.233 42.792C222.401 43.24 221.985 43.992 221.985 45.048V47.016C221.985 48.584 223.409 49.368 226.257 49.368H228.945C233.841 49.368 236.289 51.192 236.289 54.84V56.856C236.289 59.256 235.457 60.968 233.793 61.992C232.129 62.984 229.585 63.48 226.161 63.48Z" fill="#457AF5"/>
<path id="SXCA" d="M80.88 29.48C80.08 29.48 79.1733 29.4 78.16 29.24C77.1467 29.08 76.1333 28.8533 75.12 28.56C74.1333 28.24 73.2267 27.88 72.4 27.48L73.12 22.08C73.3333 21.7067 73.68 21.52 74.16 21.52C74.2933 21.52 74.4267 21.5333 74.56 21.56C74.72 21.56 74.84 21.5867 74.92 21.64L75.16 26.08C75.96 26.56 76.8933 26.96 77.96 27.28C79.0267 27.5733 80.0267 27.72 80.96 27.72C82.5067 27.72 83.76 27.2667 84.72 26.36C85.7067 25.4533 86.2 24.2933 86.2 22.88C86.2 22.08 86.0267 21.3867 85.68 20.8C85.36 20.2133 84.76 19.64 83.88 19.08C83.0267 18.52 81.8 17.8933 80.2 17.2C78.52 16.4267 77.1867 15.68 76.2 14.96C75.2133 14.2133 74.5067 13.4 74.08 12.52C73.6533 11.64 73.44 10.6267 73.44 9.48C73.44 7.45333 74.12 5.84 75.48 4.64C76.8667 3.41333 78.6933 2.8 80.96 2.8C82.0533 2.8 83.2267 2.94667 84.48 3.24C85.7333 3.53333 86.96 3.97333 88.16 4.56L87.56 9.76C86.6533 9.76 86.1733 9.53333 86.12 9.08L85.72 5.96C85.1067 5.50666 84.3733 5.16 83.52 4.92C82.6667 4.65333 81.8 4.52 80.92 4.52C79.4533 4.52 78.2933 4.89333 77.44 5.64C76.5867 6.38666 76.16 7.38667 76.16 8.64C76.16 9.41333 76.3333 10.1067 76.68 10.72C77.0267 11.3067 77.64 11.88 78.52 12.44C79.4 13 80.64 13.6267 82.24 14.32C84 15.0933 85.3867 15.8533 86.4 16.6C87.44 17.3467 88.1733 18.16 88.6 19.04C89.0533 19.8933 89.28 20.9067 89.28 22.08C89.28 24.2933 88.52 26.08 87 27.44C85.48 28.8 83.44 29.48 80.88 29.48ZM92.4881 29C92.4881 28.12 92.7015 27.64 93.1281 27.56L95.2481 27.04L102.608 16.24L95.6081 5.44L92.8881 4.84C92.8881 4.46667 92.9415 4.17333 93.0481 3.96C93.1548 3.74667 93.3548 3.54667 93.6481 3.36H102.008C102.008 4.18667 101.795 4.66667 101.368 4.8L99.4481 5.28L104.968 13.88L110.728 5.4L108.048 4.84C108.048 4.46667 108.088 4.17333 108.168 3.96C108.275 3.74667 108.461 3.54667 108.728 3.36H115.808C115.808 4.21333 115.595 4.69333 115.168 4.8L113.048 5.32L106.048 15.56L113.328 26.88L116.208 27.48C116.208 28.1733 115.968 28.68 115.488 29H107.168C107.168 28.12 107.381 27.64 107.808 27.56L109.568 27.12L103.688 17.96L97.5681 26.96L100.288 27.48C100.288 27.8533 100.235 28.16 100.128 28.4C100.048 28.6133 99.8615 28.8133 99.5681 29H92.4881ZM130.409 29.48C128.062 29.48 125.996 28.96 124.209 27.92C122.422 26.8533 121.022 25.4 120.009 23.56C119.022 21.6933 118.529 19.5467 118.529 17.12C118.529 15.0667 118.876 13.1733 119.569 11.44C120.262 9.70667 121.222 8.2 122.449 6.92C123.676 5.61333 125.129 4.6 126.809 3.88C128.489 3.16 130.302 2.8 132.249 2.8C135.022 2.8 137.476 3.45333 139.609 4.76L138.849 10.36C137.916 10.36 137.422 10.1333 137.369 9.68L137.049 6.28C136.356 5.85333 135.489 5.52 134.449 5.28C133.436 5.01333 132.396 4.88 131.329 4.88C129.462 4.88 127.836 5.33333 126.449 6.24C125.062 7.12 123.996 8.38667 123.249 10.04C122.502 11.6933 122.129 13.6533 122.129 15.92C122.129 18.24 122.502 20.2667 123.249 22C124.022 23.7333 125.089 25.08 126.449 26.04C127.809 27 129.382 27.48 131.169 27.48C132.342 27.48 133.449 27.28 134.489 26.88C135.556 26.48 136.436 25.9333 137.129 25.24L137.529 20.52C138.116 20.52 138.542 20.5733 138.809 20.68C139.076 20.7867 139.249 20.9467 139.329 21.16L139.569 26.36C138.502 27.32 137.142 28.08 135.489 28.64C133.836 29.2 132.142 29.48 130.409 29.48ZM142.425 29C142.425 28.1733 142.638 27.6933 143.065 27.56L144.745 27.04L153.305 3.56C153.438 3.26667 153.678 3.06667 154.025 2.96C154.398 2.85333 154.718 2.8 154.985 2.8C155.331 2.8 155.678 2.84 156.025 2.92L165.385 26.96L167.985 27.52C167.985 27.8667 167.931 28.1467 167.825 28.36C167.718 28.5733 167.518 28.7867 167.225 29H159.185C159.185 28.1733 159.398 27.6933 159.825 27.56L161.945 27L159.345 20.36H149.105L146.705 26.88L149.785 27.52C149.785 27.8667 149.731 28.1467 149.625 28.36C149.545 28.5733 149.331 28.7867 148.985 29H142.425ZM149.705 18.68H158.665L154.025 6.84L149.705 18.68Z" fill="#FF6767"/>
</g>
</g>
<defs>
<filter id="filter0_d" x="0" y="0" width="271.11" height="82.25" filterUnits="userSpaceOnUse" color-interpolation-filters="sRGB">
<feFlood flood-opacity="0" result="BackgroundImageFix"/>
<feColorMatrix in="SourceAlpha" type="matrix" values="0 0 0 0 0 0 0 0 0 0 0 0 0 0 0 0 0 0 127 0" result="hardAlpha"/>
<feOffset dy="4"/>
<feGaussianBlur stdDeviation="2"/>
<feComposite in2="hardAlpha" operator="out"/>
<feColorMatrix type="matrix" values="0 0 0 0 0 0 0 0 0 0 0 0 0 0 0 0 0 0 0.25 0"/>
<feBlend mode="normal" in2="BackgroundImageFix" result="effect1_dropShadow"/>
<feBlend mode="normal" in="SourceGraphic" in2="effect1_dropShadow" result="shape"/>
</filter>
<clipPath id="clip0">
<rect width="263.11" height="74.25" fill="white" transform="translate(4)"/>
</clipPath>
</defs>
</svg>
